# xmcd
#
# Track frame offsets:
#	150
#	17600
#	31060
#	50327
#	65477
#	82185
#	96877
#	112665
#	128490
#	144460
#	160820
#	177082
#	195732
#	208182
#
# Disc length: 3053 seconds
#
# Revision: 6
# Processed by: cddbd v1.5.2PL0 Copyright (c) Steve Scherf et al.
# Submitted via: audiograbber 1.83.01
#
DISCID=b30beb0e
DTITLE=Various Artist - New Country - Summer Travel 1995
DYEAR=1985
DGENRE=Country
TTITLE0=Steve Goodman - City Of New Orleans
TTITLE1=Sawyer Brown - Travelin' Shoes
TTITLE2=Jim Henry - Louisiana Girl
TTITLE3=John Prine - New Train
TTITLE4=4 Runner - A Heart With 4 Wheel Drive
TTITLE5=Brother Phelps - Ragtop
TTITLE6=Steve Forbert - It Is What It Is (And That's All)
TTITLE7=The Hardliners - One More Day
TTITLE8=Terry Radigan - 1970 #1 Song Cadillac
TTITLE9=Nick Lowe - True Love Travels On A Gravel Roaf
TTITLE10=Dar Williams - Traveling Again (Traveling I)
TTITLE11=Guy Clark - Baby Took A Limo To Memphis
TTITLE12=Kieran Kane - Eight More Miles
TTITLE13=The Highwaymen - The Road Goes On Forever
EXTD=
EXTT0=
EXTT1=
EXTT2=
EXTT3=
EXTT4=
EXTT5=
EXTT6=
EXTT7=
EXTT8=
EXTT9=
EXTT10=
EXTT11=
EXTT12=
EXTT13=
PLAYORDER=
